<svg width="45" height="45" viewBox="0 0 45 45" fill="none" xmlns="http://www.w3.org/2000/svg">
<circle cx="22.5" cy="22.5" r="21.5" fill="white" stroke="#F13C6E" stroke-width="2"/>
<path d="M26.125 11H17.875C14.0786 11 11 14.0786 11 17.875V26.125C11 29.9214 14.0786 33 17.875 33H26.125C29.9214 33 33 29.9214 33 26.125V17.875C33 14.0786 29.9214 11 26.125 11ZM30.9375 26.125C30.9375 28.7787 28.7787 30.9375 26.125 30.9375H17.875C15.2213 30.9375 13.0625 28.7787 13.0625 26.125V17.875C13.0625 15.2213 15.2213 13.0625 17.875 13.0625H26.125C28.7787 13.0625 30.9375 15.2213 30.9375 17.875V26.125Z" fill="#F13C6E"/>
<path d="M22 16.5C18.9626 16.5 16.5 18.9626 16.5 22C16.5 25.0374 18.9626 27.5 22 27.5C25.0374 27.5 27.5 25.0374 27.5 22C27.5 18.9626 25.0374 16.5 22 16.5ZM22 25.4375C20.1052 25.4375 18.5625 23.8948 18.5625 22C18.5625 20.1039 20.1052 18.5625 22 18.5625C23.8948 18.5625 25.4375 20.1039 25.4375 22C25.4375 23.8948 23.8948 25.4375 22 25.4375Z" fill="#F13C6E"/>
<path d="M27.9125 16.8204C28.3172 16.8204 28.6454 16.4922 28.6454 16.0875C28.6454 15.6827 28.3172 15.3546 27.9125 15.3546C27.5077 15.3546 27.1796 15.6827 27.1796 16.0875C27.1796 16.4922 27.5077 16.8204 27.9125 16.8204Z" fill="#F13C6E"/>
</svg>
